<?xml version="1.0" standalone="no"?>
<!DOCTYPE svg PUBLIC "-//W3C//DTD SVG 20010904//EN"
 "http://www.w3.org/TR/2001/REC-SVG-20010904/DTD/svg10.dtd">
<svg version="1.0" xmlns="http://www.w3.org/2000/svg"
 width="1568.000000pt" height="1568.000000pt" viewBox="0 0 1568.000000 1568.000000"
 preserveAspectRatio="xMidYMid meet">
<metadata>
Created by potrace 1.11, written by Peter Selinger 2001-2013
</metadata>
<g transform="translate(0.000000,1568.000000) scale(0.100000,-0.100000)"
fill="#000000" stroke="none">
<path d="M10 7840 l0 -7840 7835 0 7835 0 0 7840 0 7840 -7835 0 -7835 0 0
-7840z m9138 4766 c79 -44 124 -107 158 -221 17 -56 18 -138 21 -1167 l4
-1108 359 0 358 0 63 -33 c72 -37 116 -88 150 -174 21 -54 23 -76 27 -309 2
-154 0 -273 -7 -310 -17 -90 -64 -178 -118 -219 -81 -62 -107 -65 -490 -65
l-343 0 0 -1672 c0 -1903 1 -1925 80 -2178 48 -152 76 -200 135 -230 49 -25
54 -25 360 -30 308 -5 310 -5 365 -31 144 -67 180 -164 180 -483 0 -321 -34
-423 -170 -504 -66 -39 -144 -44 -583 -39 -323 4 -430 9 -496 21 -348 68 -629
272 -788 573 -106 201 -182 487 -230 863 -15 122 -18 313 -23 1920 l-5 1785
-170 5 c-149 5 -177 9 -223 29 -86 39 -142 117 -168 240 -16 79 -20 479 -4
561 15 81 58 165 105 209 64 59 117 71 307 71 l158 0 0 33 c0 31 83 1782 95
2017 12 212 55 344 137 414 73 63 90 65 413 63 l290 -2 53 -29z m-5624 -6 c63
-32 109 -87 138 -164 l23 -61 3 -4050 c2 -3558 0 -4061 -13 -4137 -29 -172
-84 -267 -182 -314 l-58 -29 -405 0 -405 0 -48 25 c-84 42 -131 111 -170 248
l-22 77 -5 3450 c-5 3443 -5 3450 -25 3447 -11 -2 -101 -24 -200 -49 -199 -50
-250 -51 -333 -11 -54 25 -114 100 -139 170 -16 48 -18 90 -18 428 0 369 0
376 23 432 27 66 91 137 151 168 23 11 137 45 254 75 117 30 439 115 717 189
471 126 510 135 585 133 62 -2 91 -8 129 -27z m2933 -4 c86 -47 133 -136 153
-287 8 -60 10 -1233 7 -4079 -3 -3697 -4 -4000 -20 -4069 -23 -103 -72 -205
-120 -247 -77 -70 -67 -69 -517 -69 -390 0 -407 1 -450 21 -90 41 -150 131
-187 279 -16 66 -17 282 -20 3513 -3 3264 -4 3443 -21 3438 -9 -2 -98 -26
-197 -51 -192 -50 -251 -53 -328 -21 -47 19 -106 82 -133 141 -40 87 -46 159
-42 506 3 313 4 326 27 383 28 71 95 147 155 175 23 12 357 104 741 205 385
101 709 186 720 189 11 3 56 5 100 3 66 -2 89 -7 132 -30z m5166 -2504 c105
-37 190 -137 232 -276 14 -45 149 -643 300 -1331 428 -1941 449 -2037 452
-2028 2 4 138 751 303 1658 165 908 308 1673 317 1700 47 145 122 238 222 276
50 18 73 20 325 17 268 -3 272 -3 321 -28 59 -30 107 -95 133 -179 13 -43 17
-89 16 -196 l-1 -140 -547 -2815 c-593 -3055 -580 -2993 -632 -3190 -118 -453
-252 -741 -433 -933 -207 -219 -446 -317 -773 -317 -234 0 -419 37 -563 113
-70 37 -180 142 -219 208 -43 75 -59 188 -53 364 10 265 65 405 184 465 76 39
152 34 356 -23 208 -59 235 -60 275 -11 47 57 119 211 146 313 60 225 59 413
-3 711 -23 107 -322 1295 -666 2640 -344 1345 -631 2481 -636 2525 -24 183 22
375 106 442 63 50 76 51 445 51 296 0 352 -2 393 -16z"/>
</g>
</svg>
