<?xml version="1.0" encoding="UTF-8" standalone="no"?>
<!DOCTYPE svg PUBLIC "-//W3C//DTD SVG 1.1//EN" "http://www.w3.org/Graphics/SVG/1.1/DTD/svg11.dtd">
<svg width="100%" height="100%" viewBox="0 0 1178 1001" version="1.1" xmlns="http://www.w3.org/2000/svg" xmlns:xlink="http://www.w3.org/1999/xlink" xml:space="preserve" xmlns:serif="http://www.serif.com/" style="fill-rule:evenodd;clip-rule:evenodd;stroke-linejoin:round;stroke-miterlimit:2;">
    <g id="Artboard1" transform="matrix(0.998341,0,0,1.0015,-1458.44,-187.377)">
        <rect x="1460.87" y="187.095" width="1179.21" height="998.9" style="fill:none;"/>
        <g transform="matrix(1.00166,0,0,0.998498,1363.99,70.7305)">
            <path d="M1111.95,723.269L1156.73,421.935C1158.59,407.616 1162.35,398.298 1166.32,393.26C1172.16,385.87 1179.77,382.235 1188.91,382.235L1234.11,382.235C1241.34,382.235 1247.32,385.262 1251.68,391.9C1254.88,396.758 1257.31,405.09 1257.31,417.235C1257.31,420.935 1256.89,425.794 1256.08,431.576L1256.03,431.927C1256.03,431.927 1160.06,931.575 1160.09,931.436C1152.36,973.974 1143.73,1006.5 1134.46,1029.06C1124.16,1054.12 1112.2,1070.83 1099.43,1079.84C1086.34,1089.16 1069.11,1094.36 1047.27,1094.84L1041.71,1094.84C1007.09,1094.84 984.054,1084.41 971.407,1066.18C969.731,1064.11 968.152,1061.32 966.976,1057.66C965.275,1052.37 964.213,1044.1 964.213,1032.84C964.213,1013.93 966.592,1000.77 970.26,993.21C975.258,982.904 982.783,978.935 991.113,978.935C991.951,978.935 999.866,980.596 1014.62,984.949C1024.93,988.11 1031.42,989.935 1034.41,989.935C1035.65,989.935 1036.42,988.752 1037.47,987.535C1039.52,985.159 1041.36,981.941 1043.15,977.97C1048.64,965.837 1051.11,948.623 1051.11,926.335C1051.11,920.822 1047.49,901.972 1040.65,869.61L934.942,430.249L934.848,429.576C934.034,423.762 933.613,419.107 933.613,415.735C933.613,404.397 935.809,396.585 938.657,392.028C942.861,385.301 948.705,382.335 955.713,382.335L1020.91,382.335C1029.98,382.335 1037.37,385.518 1043.36,391.684C1047.91,396.373 1052.29,405.534 1054.57,419.536L1111.95,723.269ZM689.897,382.435L689.913,381.611C689.913,381.611 699.628,171.787 699.636,171.626C700.502,156.673 703.756,146.395 707.984,140.414C713.081,133.202 719.737,129.935 727.613,129.935L781.513,129.935C791.452,129.935 799.32,134.575 804.29,145.067C807.178,151.163 809.013,160.242 809.013,172.435C809.013,172.435 809.013,381.935 809.013,381.935L809.024,382.435L870.213,382.435C885.046,382.435 897.713,393.827 897.713,422.835C897.713,422.835 897.713,451.935 897.713,451.935C897.713,480.51 885.165,491.735 870.213,491.735L808.913,491.735L808.913,766.435C808.913,786.158 810.092,802.661 812.652,815.747C814.793,826.686 817.456,834.933 821.578,840.006C824.987,844.201 828.147,847.377 831.662,848.796L831.768,848.841C835.474,850.409 840.067,850.935 845.413,850.935L883.613,850.935C891.505,850.935 897.666,853.496 902.382,857.831C908.089,863.078 912.113,871.837 912.113,884.835C912.113,884.835 912.113,917.135 912.113,917.135C912.113,930.972 907.992,940.301 902.119,945.859C897.184,950.528 890.738,953.235 882.538,953.235L827.713,953.335C812.312,953.335 799.053,952.231 787.717,950.092C775.63,947.811 763.047,942.776 749.933,934.794C736.543,926.643 725.559,915.501 716.943,901.295C708.901,888.037 702.211,869.513 697.212,845.713C692.442,823.005 689.913,796.049 689.913,764.735L689.913,491.735L664.613,491.735C649.66,491.735 637.113,480.51 637.113,451.935C637.113,451.935 637.113,422.835 637.113,422.835C637.113,393.827 649.779,382.435 664.613,382.435L689.897,382.435ZM393.483,188.461L535.429,151.928C537.376,151.397 540.196,150.935 543.913,150.935C553.323,150.935 560.79,155.3 565.466,165.335C568.046,170.873 569.713,179.126 569.713,190.235C569.713,190.235 569.713,902.235 569.713,902.235C569.713,920.115 566.912,932.483 562.754,939.618C557.576,948.503 550.306,952.335 541.704,952.335L459.396,952.235L459.413,952.235C450.914,952.235 443.665,948.403 438.566,939.323C434.581,932.228 431.913,919.917 431.913,902.135L431.913,307.035L431.913,307.033C408.223,312.952 396.192,315.635 395.813,315.635L397.048,315.58C383.219,316.806 370.013,306.82 370.013,277.935L370.013,226.235C370.013,203.146 379.705,191.589 393.483,188.461ZM188.413,939.235C179.413,939.235 174.913,927.235 174.913,903.135L174.913,308.035C174.913,296.535 172.613,291.135 167.913,291.835C139.513,299.035 125.213,302.635 124.813,302.635C116.913,303.335 113.013,295.435 113.013,278.935L113.013,227.235C113.013,212.935 117.313,204.835 125.913,203.035L268.213,166.335C269.313,166.035 270.913,165.835 273.013,165.835C280.913,165.835 284.813,174.235 284.813,191.135L284.813,903.135C284.813,927.235 280.113,939.235 270.813,939.235L188.413,939.235Z" style="fill:white;fill-rule:nonzero;"/>
        </g>
    </g>
</svg>
